<svg width="477" height="375" viewBox="0 0 477 375" fill="none" xmlns="http://www.w3.org/2000/svg">
<g id="undraw Posts re ormv 1">
<g id="Mid">
<path id="Vector" d="M448.847 190.221H15.2833C11.2313 190.217 7.34665 188.692 4.48147 185.982C1.61629 183.271 0.00460286 179.597 0 175.764V131.633C0.00460286 127.8 1.61629 124.125 4.48147 121.415C7.34665 118.705 11.2313 117.18 15.2833 117.176H448.847C452.898 117.18 456.783 118.705 459.649 121.415C462.514 124.125 464.125 127.8 464.13 131.633V175.764C464.125 179.597 462.514 183.271 459.649 185.982C456.783 188.692 452.898 190.217 448.847 190.221ZM15.2833 118.698C11.6579 118.702 8.18204 120.065 5.61844 122.49C3.05485 124.915 1.61283 128.204 1.60877 131.633V175.764C1.61283 179.194 3.05485 182.482 5.61844 184.906C8.18204 187.331 11.6579 188.696 15.2833 188.699H448.847C452.472 188.696 455.948 187.331 458.511 184.906C461.075 182.482 462.517 179.194 462.521 175.764V131.633C462.517 128.204 461.075 124.915 458.511 122.49C455.948 120.065 452.472 118.702 448.847 118.698H15.2833Z" fill="#3F3D56"/>
<path id="Vector 2" d="M86.7376 178.428H60.997C57.4782 178.424 54.1047 177.1 51.6165 174.746C49.1283 172.392 47.7286 169.201 47.7247 165.873V141.525C47.7286 138.196 49.1283 135.005 51.6165 132.651C54.1047 130.298 57.4782 128.974 60.997 128.97H86.7376C90.256 128.974 93.6296 130.298 96.1175 132.651C98.6063 135.005 100.006 138.196 100.01 141.525V165.873C100.006 169.201 98.6063 172.392 96.1175 174.746C93.6296 177.1 90.256 178.424 86.7376 178.428Z" fill="#0275D8"/>
<path id="Vector 3" d="M409.568 174.243H125.62C123.914 174.243 122.277 173.601 121.07 172.459C119.863 171.318 119.185 169.769 119.185 168.156C119.185 166.541 119.863 164.993 121.07 163.851C122.277 162.709 123.914 162.069 125.62 162.069H409.568C411.275 162.069 412.911 162.709 414.118 163.851C415.325 164.993 416.003 166.541 416.003 168.156C416.003 169.769 415.325 171.318 414.118 172.459C412.911 173.601 411.275 174.243 409.568 174.243Z" fill="#CCCCCC"/>
<path id="Vector 4" d="M317.063 148.373H125.62C123.914 148.373 122.277 147.731 121.07 146.589C119.863 145.448 119.185 143.899 119.185 142.286C119.185 140.671 119.863 139.122 121.07 137.981C122.277 136.839 123.914 136.198 125.62 136.198H317.063C318.77 136.198 320.407 136.839 321.614 137.981C322.82 139.122 323.499 140.671 323.499 142.286C323.499 143.899 322.82 145.448 321.614 146.589C320.407 147.731 318.77 148.373 317.063 148.373Z" fill="#CCCCCC"/>
</g>
<g id="Add">
<path id="Vector 5" d="M448.847 294.463H15.2833C11.2313 294.458 7.34665 292.933 4.48147 290.223C1.61629 287.513 0.00460286 283.838 0 280.006V235.874C0.00460286 232.041 1.61629 228.367 4.48147 225.656C7.34665 222.946 11.2313 221.421 15.2833 221.418H448.847C452.898 221.421 456.783 222.946 459.649 225.656C462.514 228.367 464.125 232.041 464.13 235.874V280.006C464.125 283.838 462.514 287.513 459.649 290.223C456.783 292.933 452.898 294.458 448.847 294.463ZM15.2833 222.939C11.6579 222.943 8.18204 224.307 5.61844 226.732C3.05485 229.157 1.61283 232.445 1.60877 235.874V280.006C1.61283 283.435 3.05485 286.723 5.61844 289.148C8.18204 291.573 11.6579 292.937 15.2833 292.941H448.847C452.472 292.937 455.948 291.573 458.511 289.148C461.075 286.723 462.517 283.435 462.521 280.006V235.874C462.517 232.445 461.075 229.157 458.511 226.732C455.948 224.307 452.472 222.943 448.847 222.939H15.2833Z" fill="#3F3D56"/>
<path id="Vector 6" d="M86.7376 282.669H60.997C57.4782 282.665 54.1047 281.341 51.6165 278.987C49.1283 276.633 47.7286 273.442 47.7247 270.114V245.766C47.7286 242.437 49.1283 239.246 51.6165 236.892C54.1047 234.539 57.4782 233.215 60.997 233.211H86.7376C90.256 233.215 93.6296 234.539 96.1175 236.892C98.6063 239.246 100.006 242.437 100.01 245.766V270.114C100.006 273.442 98.6063 276.633 96.1175 278.987C93.6296 281.341 90.256 282.665 86.7376 282.669Z" fill="#0275D8"/>
<path id="Vector 7" d="M409.568 278.484H125.62C123.914 278.484 122.277 277.843 121.07 276.7C119.863 275.559 119.185 274.011 119.185 272.397C119.185 270.782 119.863 269.234 121.07 268.093C122.277 266.95 123.914 266.31 125.62 266.31H409.568C411.275 266.31 412.911 266.95 414.118 268.093C415.325 269.234 416.003 270.782 416.003 272.397C416.003 274.011 415.325 275.559 414.118 276.7C412.911 277.843 411.275 278.484 409.568 278.484Z" fill="#CCCCCC"/>
<path id="Vector 8" d="M317.063 252.614H125.62C123.914 252.614 122.277 251.972 121.07 250.83C119.863 249.689 119.185 248.141 119.185 246.527C119.185 244.912 119.863 243.364 121.07 242.222C122.277 241.08 123.914 240.44 125.62 240.44H317.063C318.77 240.44 320.407 241.08 321.614 242.222C322.82 243.364 323.499 244.912 323.499 246.527C323.499 248.141 322.82 249.689 321.614 250.83C320.407 251.972 318.77 252.614 317.063 252.614Z" fill="#CCCCCC"/>
</g>
<g id="Remove">
<path id="Vector 9" d="M448.847 12.9351H15.2833C11.2311 12.9381 7.34581 14.4622 4.48043 17.1732C1.61504 19.8835 0.00366764 23.5585 0 27.3919V71.5232C0.00366764 75.3558 1.61504 79.0309 4.48043 81.7419C7.34581 84.4522 11.2311 85.9762 15.2833 85.98H448.847C452.899 85.9762 456.784 84.4522 459.649 81.7419C462.515 79.0309 464.126 75.3558 464.13 71.5232V27.3919C464.126 23.5585 462.515 19.8835 459.649 17.1732C456.784 14.4622 452.899 12.9381 448.847 12.9351ZM462.521 71.5232C462.516 74.9518 461.074 78.2395 458.51 80.6637C455.947 83.0887 452.472 84.4529 448.847 84.4583H15.2833C11.6582 84.4529 8.183 83.0887 5.61962 80.6637C3.05626 78.2395 1.6139 74.9518 1.60877 71.5232V27.3919C1.6139 23.9626 3.05626 20.6755 5.61962 18.2506C8.183 15.8257 11.6582 14.4614 15.2833 14.4568H448.847C452.472 14.4614 455.947 15.8257 458.51 18.2506C461.074 20.6755 462.516 23.9626 462.521 27.3919V71.5232Z" fill="#3F3D56"/>
<path id="Vector 10" d="M86.7376 74.1863H60.997C57.4782 74.1825 54.1047 72.8585 51.6165 70.5044C49.1283 68.1509 47.7286 64.9598 47.7247 61.6317V37.2834C47.7286 33.9545 49.1283 30.7633 51.6165 28.4099C54.1047 26.0565 57.4782 24.7326 60.997 24.7288H86.7376C90.256 24.7326 93.6296 26.0565 96.1175 28.4099C98.6063 30.7633 100.006 33.9545 100.01 37.2834V61.6317C100.006 64.9598 98.6063 68.1509 96.1175 70.5044C93.6296 72.8585 90.256 74.1825 86.7376 74.1863Z" fill="#0275D8"/>
<path id="Vector 11" d="M409.568 70.0014H125.62C123.914 70.0014 122.277 69.36 121.07 68.2179C119.863 67.0766 119.185 65.5282 119.185 63.9144C119.185 62.2998 119.863 60.7514 121.07 59.61C122.277 58.4679 123.914 57.8273 125.62 57.8273H409.568C411.275 57.8273 412.911 58.4679 414.118 59.61C415.325 60.7514 416.003 62.2998 416.003 63.9144C416.003 65.5282 415.325 67.0766 414.118 68.2179C412.911 69.36 411.275 70.0014 409.568 70.0014Z" fill="#CCCCCC"/>
<path id="Vector 12" d="M317.063 44.1313H125.62C123.914 44.1313 122.277 43.4899 121.07 42.3478C119.863 41.2065 119.185 39.6581 119.185 38.0443C119.185 36.4297 119.863 34.8813 121.07 33.7399C122.277 32.5979 123.914 31.9572 125.62 31.9572H317.063C318.77 31.9572 320.407 32.5979 321.614 33.7399C322.82 34.8813 323.499 36.4297 323.499 38.0443C323.499 39.6581 322.82 41.2065 321.614 42.3478C320.407 43.4899 318.77 44.1313 317.063 44.1313Z" fill="#CCCCCC"/>
<g id="Cross">
<path id="Cross 2" d="M458.499 35.0007C468.717 35.0007 477 27.1651 477 17.5004C477 7.83483 468.717 0 458.499 0C448.281 0 439.998 7.83483 439.998 17.5004C439.998 27.1651 448.281 35.0007 458.499 35.0007Z" fill="#3F3D56"/>
<path id="Vector 13" d="M465.739 24.7288C465.633 24.7288 465.529 24.709 465.431 24.6709C465.333 24.6321 465.245 24.5766 465.17 24.5058L450.691 10.8099C450.541 10.6669 450.455 10.4736 450.455 10.272C450.455 10.0696 450.541 9.8763 450.691 9.73402C450.842 9.59097 451.047 9.51108 451.26 9.51108C451.473 9.51108 451.678 9.59097 451.828 9.73402L466.307 23.4299C466.42 23.5357 466.496 23.6719 466.528 23.8195C466.558 23.9664 466.542 24.1201 466.482 24.2586C466.421 24.3978 466.318 24.5165 466.186 24.6002C466.053 24.6839 465.898 24.7288 465.739 24.7288Z" fill="white"/>
<path id="Vector 14" d="M451.26 24.7288C451.1 24.7288 450.945 24.6839 450.813 24.6002C450.68 24.5165 450.578 24.3978 450.516 24.2586C450.456 24.1201 450.44 23.9671 450.471 23.8195C450.502 23.6719 450.578 23.5357 450.691 23.4299L465.17 9.73402C465.245 9.66325 465.333 9.60695 465.431 9.56891C465.529 9.53086 465.633 9.51108 465.739 9.51108C465.844 9.51108 465.949 9.53086 466.047 9.56891C466.144 9.60695 466.232 9.66325 466.307 9.73402C466.382 9.80402 466.442 9.88848 466.482 9.98055C466.522 10.0726 466.543 10.1715 466.543 10.272C466.543 10.3716 466.522 10.4706 466.482 10.5626C466.442 10.6555 466.382 10.7391 466.307 10.8099L451.828 24.5058C451.754 24.5766 451.665 24.6321 451.568 24.6709C451.47 24.709 451.365 24.7288 451.26 24.7288Z" fill="white"/>
</g>
</g>
<g id="Plus">
<path id="Ellipse 220" d="M227.711 375C249.962 375 268 360.378 268 342.34C268 324.302 249.962 309.68 227.711 309.68C205.459 309.68 187.422 324.302 187.422 342.34C187.422 360.378 205.459 375 227.711 375Z" fill="#0275D8"/>
<path id="Path 1106" d="M244.441 339.597H230.743V328.493C230.743 327.8 230.403 327.136 229.799 326.645C229.194 326.155 228.375 325.88 227.52 325.88C226.664 325.88 225.845 326.155 225.24 326.645C224.636 327.136 224.296 327.8 224.296 328.493V339.597H210.598C209.743 339.597 208.923 339.873 208.318 340.363C207.714 340.853 207.375 341.517 207.375 342.21C207.375 342.904 207.714 343.568 208.318 344.058C208.923 344.548 209.743 344.823 210.598 344.823H224.296V355.928C224.296 356.621 224.636 357.285 225.24 357.776C225.845 358.265 226.664 358.541 227.52 358.541C228.375 358.541 229.194 358.265 229.799 357.776C230.403 357.285 230.743 356.621 230.743 355.928V344.823H244.441C245.296 344.823 246.116 344.548 246.721 344.058C247.325 343.568 247.665 342.904 247.665 342.21C247.665 341.517 247.325 340.853 246.721 340.363C246.116 339.873 245.296 339.597 244.441 339.597Z" fill="white"/>
</g>
</g>
</svg>
