<svg width="929" height="709" viewBox="0 0 929 709" fill="none" xmlns="http://www.w3.org/2000/svg">
<g id="undraw_Posts_re_ormv 1">
<g id="Mid">
<path id="Vector" d="M558 379H19C13.9626 378.994 9.13326 376.99 5.5713 373.428C2.00935 369.866 0.00572222 365.037 0 360V302C0.00572222 296.962 2.00935 292.133 5.5713 288.571C9.13326 285.009 13.9626 283.005 19 283H558C563.037 283.005 567.867 285.009 571.429 288.571C574.991 292.133 576.994 296.962 577 302V360C576.994 365.037 574.991 369.866 571.429 373.428C567.867 376.99 563.037 378.994 558 379V379ZM19 285C14.4929 285.005 10.1718 286.797 6.98477 289.984C3.79775 293.171 2.00505 297.493 2 302V360C2.00505 364.507 3.79775 368.828 6.98477 372.015C10.1718 375.202 14.4929 376.995 19 377H558C562.507 376.995 566.828 375.202 570.015 372.015C573.202 368.828 574.995 364.507 575 360V302C574.995 297.493 573.202 293.171 570.015 289.984C566.828 286.797 562.507 285.005 558 285H19Z" fill="#3F3D56"/>
<path id="Vector_2" d="M107.831 363.5H75.8307C71.4561 363.495 67.2622 361.755 64.1689 358.661C61.0756 355.568 59.3356 351.374 59.3307 347V315C59.3356 310.625 61.0756 306.431 64.1689 303.338C67.2622 300.245 71.4561 298.505 75.8307 298.5H107.831C112.205 298.505 116.399 300.245 119.492 303.338C122.586 306.431 124.326 310.625 124.331 315V347C124.326 351.374 122.586 355.568 119.492 358.661C116.399 361.755 112.205 363.495 107.831 363.5V363.5Z" fill="#0275D8"/>
<path id="Vector_3" d="M509.169 358H156.169C154.048 358 152.013 357.157 150.512 355.656C149.012 354.156 148.169 352.121 148.169 350C148.169 347.878 149.012 345.843 150.512 344.343C152.013 342.842 154.048 342 156.169 342H509.169C511.291 342 513.326 342.842 514.826 344.343C516.326 345.843 517.169 347.878 517.169 350C517.169 352.121 516.326 354.156 514.826 355.656C513.326 357.157 511.291 358 509.169 358Z" fill="#CCCCCC"/>
<path id="Vector_4" d="M394.169 324H156.169C154.048 324 152.013 323.157 150.512 321.656C149.012 320.156 148.169 318.121 148.169 316C148.169 313.878 149.012 311.843 150.512 310.343C152.013 308.842 154.048 308 156.169 308H394.169C396.291 308 398.326 308.842 399.826 310.343C401.326 311.843 402.169 313.878 402.169 316C402.169 318.121 401.326 320.156 399.826 321.656C398.326 323.157 396.291 324 394.169 324Z" fill="#CCCCCC"/>
</g>
<g id="Add">
<path id="Vector_5" d="M558 516H19C13.9626 515.994 9.13326 513.99 5.5713 510.428C2.00935 506.866 0.00572222 502.037 0 497V439C0.00572222 433.962 2.00935 429.133 5.5713 425.571C9.13326 422.009 13.9626 420.005 19 420H558C563.037 420.005 567.867 422.009 571.429 425.571C574.991 429.133 576.994 433.962 577 439V497C576.994 502.037 574.991 506.866 571.429 510.428C567.867 513.99 563.037 515.994 558 516V516ZM19 422C14.4929 422.005 10.1718 423.797 6.98477 426.984C3.79775 430.171 2.00505 434.493 2 439V497C2.00505 501.507 3.79775 505.828 6.98477 509.015C10.1718 512.202 14.4929 513.995 19 514H558C562.507 513.995 566.828 512.202 570.015 509.015C573.202 505.828 574.995 501.507 575 497V439C574.995 434.493 573.202 430.171 570.015 426.984C566.828 423.797 562.507 422.005 558 422H19Z" fill="#3F3D56"/>
<path id="Vector_6" d="M107.831 500.5H75.8307C71.4561 500.495 67.2622 498.755 64.1689 495.661C61.0756 492.568 59.3356 488.374 59.3307 484V452C59.3356 447.625 61.0756 443.431 64.1689 440.338C67.2622 437.245 71.4561 435.505 75.8307 435.5H107.831C112.205 435.505 116.399 437.245 119.492 440.338C122.586 443.431 124.326 447.625 124.331 452V484C124.326 488.374 122.586 492.568 119.492 495.661C116.399 498.755 112.205 500.495 107.831 500.5V500.5Z" fill="#0275D8"/>
<path id="Vector_7" d="M509.169 495H156.169C154.048 495 152.013 494.157 150.512 492.656C149.012 491.156 148.169 489.121 148.169 487C148.169 484.878 149.012 482.843 150.512 481.343C152.013 479.842 154.048 479 156.169 479H509.169C511.291 479 513.326 479.842 514.826 481.343C516.326 482.843 517.169 484.878 517.169 487C517.169 489.121 516.326 491.156 514.826 492.656C513.326 494.157 511.291 495 509.169 495Z" fill="#CCCCCC"/>
<path id="Vector_8" d="M394.169 461H156.169C154.048 461 152.013 460.157 150.512 458.656C149.012 457.156 148.169 455.121 148.169 453C148.169 450.878 149.012 448.843 150.512 447.343C152.013 445.842 154.048 445 156.169 445H394.169C396.291 445 398.326 445.842 399.826 447.343C401.326 448.843 402.169 450.878 402.169 453C402.169 455.121 401.326 457.156 399.826 458.656C398.326 460.157 396.291 461 394.169 461Z" fill="#CCCCCC"/>
</g>
<g id="Remove">
<path id="Vector_9" d="M558 146H19C13.9623 146.004 9.13221 148.007 5.57001 151.57C2.0078 155.132 0.00455956 159.962 0 165V223C0.00455956 228.037 2.0078 232.867 5.57001 236.43C9.13221 239.992 13.9623 241.995 19 242H558C563.038 241.995 567.868 239.992 571.43 236.43C574.992 232.867 576.995 228.037 577 223V165C576.995 159.962 574.992 155.132 571.43 151.57C567.868 148.007 563.038 146.004 558 146V146ZM575 223C574.994 227.506 573.201 231.827 570.014 235.013C566.827 238.2 562.507 239.993 558 240H19C14.4933 239.993 10.173 238.2 6.98624 235.013C3.7995 231.827 2.00638 227.506 2 223V165C2.00638 160.493 3.7995 156.173 6.98624 152.986C10.173 149.799 14.4933 148.006 19 148H558C562.507 148.006 566.827 149.799 570.014 152.986C573.201 156.173 574.994 160.493 575 165V223Z" fill="#3F3D56"/>
<path id="Vector_10" d="M107.831 226.5H75.8307C71.4561 226.495 67.2622 224.755 64.1689 221.661C61.0756 218.568 59.3356 214.374 59.3307 210V178C59.3356 173.625 61.0756 169.431 64.1689 166.338C67.2622 163.245 71.4561 161.505 75.8307 161.5H107.831C112.205 161.505 116.399 163.245 119.492 166.338C122.586 169.431 124.326 173.625 124.331 178V210C124.326 214.374 122.586 218.568 119.492 221.661C116.399 224.755 112.205 226.495 107.831 226.5V226.5Z" fill="#0275D8"/>
<path id="Vector_11" d="M509.169 221H156.169C154.048 221 152.013 220.157 150.512 218.656C149.012 217.156 148.169 215.121 148.169 213C148.169 210.878 149.012 208.843 150.512 207.343C152.013 205.842 154.048 205 156.169 205H509.169C511.291 205 513.326 205.842 514.826 207.343C516.326 208.843 517.169 210.878 517.169 213C517.169 215.121 516.326 217.156 514.826 218.656C513.326 220.157 511.291 221 509.169 221Z" fill="#CCCCCC"/>
<path id="Vector_12" d="M394.169 187H156.169C154.048 187 152.013 186.157 150.512 184.656C149.012 183.156 148.169 181.121 148.169 179C148.169 176.878 149.012 174.843 150.512 173.343C152.013 171.842 154.048 171 156.169 171H394.169C396.291 171 398.326 171.842 399.826 173.343C401.326 174.843 402.169 176.878 402.169 179C402.169 181.121 401.326 183.156 399.826 184.656C398.326 186.157 396.291 187 394.169 187Z" fill="#CCCCCC"/>
<g id="Cross">
<path id="Cross_2" d="M570 175C582.703 175 593 164.702 593 152C593 139.297 582.703 129 570 129C557.297 129 547 139.297 547 152C547 164.702 557.297 175 570 175Z" fill="#3F3D56"/>
<path id="Vector_13" d="M579 161.5C578.869 161.5 578.739 161.474 578.617 161.424C578.496 161.373 578.386 161.3 578.293 161.207L560.293 143.207C560.106 143.019 560 142.765 560 142.5C560 142.234 560.106 141.98 560.293 141.793C560.481 141.605 560.735 141.5 561 141.5C561.265 141.5 561.52 141.605 561.707 141.793L579.707 159.793C579.847 159.932 579.942 160.111 579.981 160.305C580.019 160.498 579.999 160.7 579.924 160.882C579.848 161.065 579.72 161.221 579.556 161.331C579.391 161.441 579.198 161.5 579 161.5L579 161.5Z" fill="white"/>
<path id="Vector_14" d="M561 161.5C560.802 161.5 560.609 161.441 560.445 161.331C560.28 161.221 560.152 161.065 560.076 160.882C560.001 160.7 559.981 160.499 560.019 160.305C560.058 160.111 560.153 159.932 560.293 159.793L578.293 141.793C578.386 141.7 578.496 141.626 578.617 141.576C578.739 141.526 578.869 141.5 579 141.5C579.131 141.5 579.261 141.526 579.383 141.576C579.504 141.626 579.614 141.7 579.707 141.793C579.8 141.885 579.874 141.996 579.924 142.117C579.974 142.238 580 142.368 580 142.5C580 142.631 579.974 142.761 579.924 142.882C579.874 143.004 579.8 143.114 579.707 143.207L561.707 161.207C561.614 161.3 561.504 161.373 561.383 161.424C561.261 161.474 561.131 161.5 561 161.5V161.5Z" fill="white"/>
</g>
</g>
<g id="Plus">
<path id="Ellipse 220" d="M288.409 646.818C319.011 646.818 343.818 622.011 343.818 591.409C343.818 560.807 319.011 536 288.409 536C257.807 536 233 560.807 233 591.409C233 622.011 257.807 646.818 288.409 646.818Z" fill="#0275D8"/>
<path id="Path 1106" d="M311.418 586.756H292.579V567.917C292.579 566.741 292.112 565.614 291.281 564.782C290.449 563.951 289.322 563.484 288.146 563.484V563.484C286.97 563.484 285.843 563.951 285.011 564.782C284.18 565.614 283.713 566.741 283.713 567.917V586.756H264.874C263.698 586.756 262.571 587.223 261.739 588.054C260.908 588.886 260.441 590.013 260.441 591.189V591.189C260.441 592.365 260.908 593.492 261.739 594.324C262.571 595.155 263.698 595.622 264.874 595.622H283.713V614.461C283.713 615.637 284.18 616.764 285.011 617.596C285.843 618.427 286.97 618.894 288.146 618.894V618.894C289.322 618.894 290.449 618.427 291.281 617.596C292.112 616.764 292.579 615.637 292.579 614.461V595.622H311.418C312.594 595.622 313.721 595.155 314.553 594.324C315.384 593.492 315.851 592.365 315.851 591.189V591.189C315.851 590.013 315.384 588.886 314.553 588.054C313.721 587.223 312.594 586.756 311.418 586.756V586.756Z" fill="white"/>
</g>
</g>
</svg>
